<mxfile host="app.diagrams.net" modified="2022-09-13T13:51:31.320Z" agent="5.0 (Macintosh; Intel Mac OS X 10_15_7) AppleWebKit/537.36 (KHTML, like Gecko) Chrome/103.0.5060.134 Safari/537.36 OPR/89.0.4447.83" etag="LbQgITmX-oSuTw7L8gzl" version="20.2.3" type="github">
  <diagram id="Z_mGe66jV5_Z0zJOLmhZ" name="Page-1">
    <mxGraphModel dx="770" dy="868" grid="1" gridSize="10" guides="1" tooltips="1" connect="1" arrows="1" fold="1" page="1" pageScale="1" pageWidth="827" pageHeight="1169" math="0" shadow="0">
      <root>
        <mxCell id="0" />
        <mxCell id="1" parent="0" />
        <mxCell id="_CtTh6U-1sHhOqO6G5Mz-10" value="" style="whiteSpace=wrap;html=1;sketch=1;fillColor=none;" vertex="1" parent="1">
          <mxGeometry x="230" y="110" width="60" height="260" as="geometry" />
        </mxCell>
        <mxCell id="_CtTh6U-1sHhOqO6G5Mz-9" value="" style="whiteSpace=wrap;html=1;sketch=1;fillColor=none;" vertex="1" parent="1">
          <mxGeometry x="150" y="110" width="60" height="260" as="geometry" />
        </mxCell>
        <mxCell id="_CtTh6U-1sHhOqO6G5Mz-1" value="" style="whiteSpace=wrap;html=1;aspect=fixed;fillColor=#f8cecc;strokeColor=#b85450;sketch=1;" vertex="1" parent="1">
          <mxGeometry x="160" y="120" width="40" height="40" as="geometry" />
        </mxCell>
        <mxCell id="_CtTh6U-1sHhOqO6G5Mz-2" value="" style="whiteSpace=wrap;html=1;aspect=fixed;fillColor=#e1d5e7;strokeColor=#9673a6;sketch=1;" vertex="1" parent="1">
          <mxGeometry x="160" y="170" width="40" height="40" as="geometry" />
        </mxCell>
        <mxCell id="_CtTh6U-1sHhOqO6G5Mz-3" value="" style="whiteSpace=wrap;html=1;aspect=fixed;fillColor=#ffe6cc;strokeColor=#d79b00;sketch=1;" vertex="1" parent="1">
          <mxGeometry x="240" y="120" width="40" height="40" as="geometry" />
        </mxCell>
        <mxCell id="_CtTh6U-1sHhOqO6G5Mz-4" value="" style="whiteSpace=wrap;html=1;aspect=fixed;fillColor=#d5e8d4;strokeColor=#82b366;sketch=1;" vertex="1" parent="1">
          <mxGeometry x="240" y="170" width="40" height="40" as="geometry" />
        </mxCell>
        <mxCell id="_CtTh6U-1sHhOqO6G5Mz-5" value="" style="whiteSpace=wrap;html=1;aspect=fixed;fillColor=#dae8fc;strokeColor=#6c8ebf;sketch=1;" vertex="1" parent="1">
          <mxGeometry x="160" y="270" width="40" height="40" as="geometry" />
        </mxCell>
        <mxCell id="_CtTh6U-1sHhOqO6G5Mz-6" value="" style="whiteSpace=wrap;html=1;aspect=fixed;fillColor=#f5f5f5;strokeColor=#666666;sketch=1;fontColor=#333333;" vertex="1" parent="1">
          <mxGeometry x="160" y="320" width="40" height="40" as="geometry" />
        </mxCell>
        <mxCell id="_CtTh6U-1sHhOqO6G5Mz-7" value="" style="whiteSpace=wrap;html=1;aspect=fixed;fillColor=#fff2cc;strokeColor=#d6b656;sketch=1;" vertex="1" parent="1">
          <mxGeometry x="240" y="270" width="40" height="40" as="geometry" />
        </mxCell>
        <mxCell id="_CtTh6U-1sHhOqO6G5Mz-8" value="" style="whiteSpace=wrap;html=1;aspect=fixed;fillColor=#1ba1e2;strokeColor=#006EAF;sketch=1;fontColor=#ffffff;" vertex="1" parent="1">
          <mxGeometry x="240" y="320" width="40" height="40" as="geometry" />
        </mxCell>
        <mxCell id="_CtTh6U-1sHhOqO6G5Mz-11" value="L1" style="text;html=1;strokeColor=none;fillColor=none;align=center;verticalAlign=middle;whiteSpace=wrap;rounded=0;sketch=1;fontFamily=Comic Sans MS;fontSize=18;" vertex="1" parent="1">
          <mxGeometry x="160" y="80" width="40" height="30" as="geometry" />
        </mxCell>
        <mxCell id="_CtTh6U-1sHhOqO6G5Mz-12" value="L2" style="text;html=1;strokeColor=none;fillColor=none;align=center;verticalAlign=middle;whiteSpace=wrap;rounded=0;sketch=1;fontFamily=Comic Sans MS;fontSize=18;" vertex="1" parent="1">
          <mxGeometry x="240" y="80" width="40" height="30" as="geometry" />
        </mxCell>
        <mxCell id="_CtTh6U-1sHhOqO6G5Mz-13" value="" style="shape=flexArrow;endArrow=classic;html=1;rounded=0;fontFamily=Comic Sans MS;fontSize=18;fillColor=#647687;strokeColor=#314354;" edge="1" parent="1">
          <mxGeometry width="50" height="50" relative="1" as="geometry">
            <mxPoint x="332" y="239.5" as="sourcePoint" />
            <mxPoint x="382" y="240" as="targetPoint" />
          </mxGeometry>
        </mxCell>
        <mxCell id="_CtTh6U-1sHhOqO6G5Mz-14" value="zip(L1,L2)" style="text;html=1;strokeColor=none;fillColor=none;align=center;verticalAlign=middle;whiteSpace=wrap;rounded=0;sketch=1;fontFamily=Courier New;fontSize=18;fontStyle=1" vertex="1" parent="1">
          <mxGeometry x="292" y="200" width="140" height="30" as="geometry" />
        </mxCell>
        <mxCell id="_CtTh6U-1sHhOqO6G5Mz-16" value="" style="whiteSpace=wrap;html=1;aspect=fixed;fillColor=#f8cecc;strokeColor=#b85450;sketch=1;" vertex="1" parent="1">
          <mxGeometry x="450" y="120" width="40" height="40" as="geometry" />
        </mxCell>
        <mxCell id="_CtTh6U-1sHhOqO6G5Mz-17" value="" style="whiteSpace=wrap;html=1;aspect=fixed;fillColor=#ffe6cc;strokeColor=#d79b00;sketch=1;" vertex="1" parent="1">
          <mxGeometry x="500" y="120" width="40" height="40" as="geometry" />
        </mxCell>
        <mxCell id="_CtTh6U-1sHhOqO6G5Mz-18" value="" style="whiteSpace=wrap;html=1;aspect=fixed;fillColor=#e1d5e7;strokeColor=#9673a6;sketch=1;" vertex="1" parent="1">
          <mxGeometry x="450" y="170" width="40" height="40" as="geometry" />
        </mxCell>
        <mxCell id="_CtTh6U-1sHhOqO6G5Mz-19" value="..." style="text;html=1;strokeColor=none;fillColor=none;align=center;verticalAlign=middle;whiteSpace=wrap;rounded=0;sketch=1;fontFamily=Comic Sans MS;fontSize=18;" vertex="1" parent="1">
          <mxGeometry x="160" y="225" width="40" height="30" as="geometry" />
        </mxCell>
        <mxCell id="_CtTh6U-1sHhOqO6G5Mz-20" value="..." style="text;html=1;strokeColor=none;fillColor=none;align=center;verticalAlign=middle;whiteSpace=wrap;rounded=0;sketch=1;fontFamily=Comic Sans MS;fontSize=18;" vertex="1" parent="1">
          <mxGeometry x="240" y="225" width="40" height="30" as="geometry" />
        </mxCell>
        <mxCell id="_CtTh6U-1sHhOqO6G5Mz-21" value="" style="whiteSpace=wrap;html=1;aspect=fixed;fillColor=#d5e8d4;strokeColor=#82b366;sketch=1;" vertex="1" parent="1">
          <mxGeometry x="500" y="170" width="40" height="40" as="geometry" />
        </mxCell>
        <mxCell id="_CtTh6U-1sHhOqO6G5Mz-22" value="..." style="text;html=1;strokeColor=none;fillColor=none;align=center;verticalAlign=middle;whiteSpace=wrap;rounded=0;sketch=1;fontFamily=Comic Sans MS;fontSize=18;" vertex="1" parent="1">
          <mxGeometry x="470" y="225" width="50" height="30" as="geometry" />
        </mxCell>
        <mxCell id="_CtTh6U-1sHhOqO6G5Mz-23" value="" style="whiteSpace=wrap;html=1;aspect=fixed;fillColor=#dae8fc;strokeColor=#6c8ebf;sketch=1;" vertex="1" parent="1">
          <mxGeometry x="450" y="270" width="40" height="40" as="geometry" />
        </mxCell>
        <mxCell id="_CtTh6U-1sHhOqO6G5Mz-24" value="" style="whiteSpace=wrap;html=1;aspect=fixed;fillColor=#fff2cc;strokeColor=#d6b656;sketch=1;" vertex="1" parent="1">
          <mxGeometry x="500" y="270" width="40" height="40" as="geometry" />
        </mxCell>
        <mxCell id="_CtTh6U-1sHhOqO6G5Mz-25" value="" style="whiteSpace=wrap;html=1;aspect=fixed;fillColor=#f5f5f5;strokeColor=#666666;sketch=1;fontColor=#333333;" vertex="1" parent="1">
          <mxGeometry x="450" y="320" width="40" height="40" as="geometry" />
        </mxCell>
        <mxCell id="_CtTh6U-1sHhOqO6G5Mz-26" value="" style="whiteSpace=wrap;html=1;aspect=fixed;fillColor=#1ba1e2;strokeColor=#006EAF;sketch=1;fontColor=#ffffff;" vertex="1" parent="1">
          <mxGeometry x="500" y="320" width="40" height="40" as="geometry" />
        </mxCell>
        <mxCell id="_CtTh6U-1sHhOqO6G5Mz-27" value="Iterator Ã¼ber Tupel" style="text;html=1;strokeColor=none;fillColor=none;align=center;verticalAlign=middle;whiteSpace=wrap;rounded=0;sketch=1;fontFamily=Comic Sans MS;fontSize=18;" vertex="1" parent="1">
          <mxGeometry x="400" y="80" width="200" height="30" as="geometry" />
        </mxCell>
        <mxCell id="_CtTh6U-1sHhOqO6G5Mz-28" value="(" style="text;html=1;strokeColor=none;fillColor=none;align=center;verticalAlign=middle;whiteSpace=wrap;rounded=0;sketch=1;fontFamily=Comic Sans MS;fontSize=44;" vertex="1" parent="1">
          <mxGeometry x="410" y="101" width="50" height="70" as="geometry" />
        </mxCell>
        <mxCell id="_CtTh6U-1sHhOqO6G5Mz-29" value="(" style="text;html=1;strokeColor=none;fillColor=none;align=center;verticalAlign=middle;whiteSpace=wrap;rounded=0;sketch=1;fontFamily=Comic Sans MS;fontSize=44;" vertex="1" parent="1">
          <mxGeometry x="410" y="151" width="50" height="70" as="geometry" />
        </mxCell>
        <mxCell id="_CtTh6U-1sHhOqO6G5Mz-30" value="(" style="text;html=1;strokeColor=none;fillColor=none;align=center;verticalAlign=middle;whiteSpace=wrap;rounded=0;sketch=1;fontFamily=Comic Sans MS;fontSize=44;" vertex="1" parent="1">
          <mxGeometry x="410" y="251" width="50" height="70" as="geometry" />
        </mxCell>
        <mxCell id="_CtTh6U-1sHhOqO6G5Mz-31" value="(" style="text;html=1;strokeColor=none;fillColor=none;align=center;verticalAlign=middle;whiteSpace=wrap;rounded=0;sketch=1;fontFamily=Comic Sans MS;fontSize=44;" vertex="1" parent="1">
          <mxGeometry x="410" y="302" width="50" height="70" as="geometry" />
        </mxCell>
        <mxCell id="_CtTh6U-1sHhOqO6G5Mz-32" value=")" style="text;html=1;strokeColor=none;fillColor=none;align=center;verticalAlign=middle;whiteSpace=wrap;rounded=0;sketch=1;fontFamily=Comic Sans MS;fontSize=44;" vertex="1" parent="1">
          <mxGeometry x="530" y="101" width="50" height="70" as="geometry" />
        </mxCell>
        <mxCell id="_CtTh6U-1sHhOqO6G5Mz-35" value=")" style="text;html=1;strokeColor=none;fillColor=none;align=center;verticalAlign=middle;whiteSpace=wrap;rounded=0;sketch=1;fontFamily=Comic Sans MS;fontSize=44;" vertex="1" parent="1">
          <mxGeometry x="530" y="151" width="50" height="70" as="geometry" />
        </mxCell>
        <mxCell id="_CtTh6U-1sHhOqO6G5Mz-36" value=")" style="text;html=1;strokeColor=none;fillColor=none;align=center;verticalAlign=middle;whiteSpace=wrap;rounded=0;sketch=1;fontFamily=Comic Sans MS;fontSize=44;" vertex="1" parent="1">
          <mxGeometry x="530" y="251" width="50" height="70" as="geometry" />
        </mxCell>
        <mxCell id="_CtTh6U-1sHhOqO6G5Mz-37" value=")" style="text;html=1;strokeColor=none;fillColor=none;align=center;verticalAlign=middle;whiteSpace=wrap;rounded=0;sketch=1;fontFamily=Comic Sans MS;fontSize=44;" vertex="1" parent="1">
          <mxGeometry x="530" y="302" width="50" height="70" as="geometry" />
        </mxCell>
      </root>
    </mxGraphModel>
  </diagram>
</mxfile>
